<svg id="Layer_1" xmlns="http://www.w3.org/2000/svg" viewBox="0 0 185 354"><style>.st0{fill:#f68a21}</style><path class="st0" d="M0 353.7l92.2-38.8 93.8 38.8v-46l-93.8-39.3L0 307.7z"/><path class="st0" d="M0 296.3l92.2-38.8 93.8 38.8v-39.9l-93.8-39.3L0 256.4z"/><path class="st0" d="M0 245.7l92.2-38.9 93.8 38.9v-34l-93.8-39.2L0 211.7z"/><path class="st0" d="M0 201l92.2-38.8L186 201v-24.9l-93.8-39.3L0 176.1z"/><path class="st0" d="M0 164.8L92.2 126l93.8 38.8v-19l-93.8-39.2L0 145.8z"/><path class="st0" d="M0 136.4l92.2-38.8 93.8 38.8v-15.9L92.2 81.3 0 120.5z"/><path class="st0" d="M0 111.4l92.2-38.8 93.8 38.8V98.5L92.2 59.3 0 98.5z"/><path class="st0" d="M0 89.1l92.2-38.8L186 89.1v-9.9L92.2 39.9 0 79.2z"/><path class="st0" d="M0 70.4l92.2-38.8L186 70.4v-6.9L92.2 24.3 0 63.5z"/><path class="st0" d="M0 55.4l92.2-38.8L186 55.4v-3.9L92.2 12.3 0 51.5z"/><path class="st0" d="M0 44.1L92.2 5.3 186 44.1v-.9L92.2 3.9 0 43.2z"/></svg>