<svg xmlns="http://www.w3.org/2000/svg" width="283.46" height="283.46" viewBox="0 0 283.46 283.46"><path d="M-8.732 23.448c0 .797-.255 1.772-.753 2.915a33.668 33.668 0 0 1-1.815 3.512 81.363 81.363 0 0 1-2.19 3.513c-.757 1.15-1.332 2.122-1.735 2.917-1.107 2.093-2.49 5.158-4.147 9.195a483.34 483.34 0 0 0-5.285 13.455 423.54 423.54 0 0 0-5.51 15.55 369.61 369.61 0 0 0-4.905 15.843c-1.458 5.137-2.64 9.817-3.548 14.055-.907 4.234-1.357 7.647-1.357 10.24l.45 2.392c0 .695-.2 1.325-.6 1.865-.403.552-1.005.822-1.813.822-1.107 0-1.937-.244-2.49-.744-.557-.498-.957-1.146-1.21-1.943-.25-.795-.4-1.667-.45-2.617a14.179 14.179 0 0 0-.377-2.618 51.837 51.837 0 0 0-3.245-10.465 272.073 272.073 0 0 1-4.15-10.165 2781.95 2781.95 0 0 0-14.193-36.475 1059.33 1059.33 0 0 1-13.507 23.32c-4.58 7.672-9.13 15.4-13.663 23.172a121.31 121.31 0 0 0-3.845 7.7 45.495 45.495 0 0 0-2.795 8.148c-.302 1.402-.782 2.817-1.435 4.26s-1.835 2.167-3.545 2.167c-2.517 0-3.775-1.047-3.775-3.14.2-1.092.353-1.842.455-2.24.4-2.292.955-5.43 1.66-9.422.703-3.982 1.383-8.473 2.038-13.453a312.501 312.501 0 0 0 1.657-16.07c.455-5.732.683-11.49.683-17.267 0-6.375-.358-12.58-1.06-18.613-.708-6.03-1.813-11.362-3.32-15.995s-3.45-8.372-5.813-11.212c-2.362-2.84-5.208-4.263-8.527-4.263-3.12 0-5.888.578-8.3 1.723-2.418 1.145-4.406 2.615-5.966 4.41a18.548 18.548 0 0 0-3.545 6.13c-.807 2.29-1.205 4.58-1.205 6.875 0 1.995.348 3.862 1.055 5.605.703 1.745 1.633 3.268 2.793 4.56a13.036 13.036 0 0 0 4.002 3.065 10.37 10.37 0 0 0 4.678 1.12c2.817 0 5.405-.917 7.772-2.763 2.363-1.845 3.545-4.757 3.545-8.747 0-3.088-.805-5.358-2.412-6.8-1.615-1.445-3.32-2.168-5.135-2.168-1.61 0-3.07.523-4.378 1.568-1.307 1.047-1.96 2.617-1.96 4.707 0 1 .225 1.873.678 2.618.455.75 1.132 1.222 2.04 1.422 0-.797.122-1.645.375-2.545.25-.895.927-1.342 2.035-1.342s1.967.4 2.567 1.195c.605.797.903 1.747.903 2.842 0 1.4-.428 2.42-1.28 3.068-.86.647-1.938.972-3.248.972-2.415 0-4.325-.822-5.737-2.467s-2.11-3.613-2.11-5.905c0-3.088 1.002-5.478 3.015-7.173s4.28-2.545 6.795-2.545c1.407 0 2.815.223 4.222.675 1.41.45 2.695 1.173 3.853 2.168 1.157.997 2.085 2.29 2.792 3.887.698 1.595 1.055 3.54 1.055 5.828 0 2.492-.455 4.712-1.36 6.655-.902 1.942-2.112 3.562-3.625 4.855a15.438 15.438 0 0 1-5.052 2.917c-1.86.65-3.698.97-5.508.97a16.59 16.59 0 0 1-6.187-1.197c-2.018-.795-3.803-1.99-5.365-3.588-1.558-1.59-2.815-3.587-3.775-5.98-.953-2.392-1.43-5.232-1.43-8.522 0-2.69.477-5.38 1.43-8.073a21.194 21.194 0 0 1 4.38-7.25c1.962-2.142 4.402-3.89 7.322-5.235 2.918-1.345 6.39-2.017 10.415-2.017 5.333 0 9.785 1.52 13.36 4.557 3.573 3.043 6.44 7.078 8.603 12.113 2.162 5.032 3.697 10.835 4.605 17.417.902 6.575 1.357 13.403 1.357 20.48 0 6.778-.205 12.685-.602 17.715-.405 5.033-.858 9.443-1.36 13.23a211.311 211.311 0 0 1 5.282-9.342c1.71-2.843 3.398-5.655 5.058-8.45a440.582 440.582 0 0 1 5.205-8.518c1.817-2.89 3.675-6.08 5.585-9.565a67.227 67.227 0 0 1 2.265-3.59 17.848 17.848 0 0 0 1.96-3.89c.202-.495.38-1.145.53-1.942.152-.798.325-1.343.527-1.643.503-.695 1.005-1.145 1.51-1.342.505-.205 1.158-.303 1.963-.303 1.407 0 2.492.325 3.247.973.753.647 1.383 1.57 1.885 2.762 1.005 2.493 2.015 5.56 3.023 9.198 1.002 3.64 2.007 7.05 3.015 10.237A810.648 810.648 0 0 0-50.4 84a526.489 526.489 0 0 0 5.732 16.445c.605-2.49 1.535-5.93 2.793-10.315s2.692-9.195 4.305-14.428a733.706 733.706 0 0 1 5.207-16.22c1.86-5.58 3.745-10.84 5.663-15.772 1.912-4.935 3.772-9.293 5.582-13.08 1.813-3.787 3.418-6.48 4.83-8.072 1.208-1.495 2.62-2.243 4.228-2.243 2.217-.007 3.327 1.043 3.327 3.133zM.212 70.837c0 3.27-.512 6.945-1.542 11.025-1.03 4.088-2.038 7.648-3.018 10.678-1.08 3.385-1.91 7.032-2.497 10.942s-.883 7.73-.883 11.465c0 1.633-.445 2.798-1.327 3.505-.88.693-1.715 1.043-2.495 1.043-1.18 0-1.915-.608-2.208-1.838-.295-1.22-.44-2.36-.44-3.41 0-3.497.24-6.917.733-10.24a225.097 225.097 0 0 1 1.692-9.975 231.417 231.417 0 0 0 1.693-10.065c.487-3.385.732-6.767.732-10.155V67.51c0-1.518.538-2.51 1.62-2.975 1.075-.468 2.153-.7 3.233-.7 1.665 0 2.867.73 3.6 2.19.74 1.46 1.107 3.063 1.107 4.813zm7.94-30.627c0 .932-.147 2.095-.44 3.495-.297 1.4-.735 2.77-1.322 4.115-.59 1.343-1.275 2.51-2.058 3.502-.787.99-1.67 1.485-2.65 1.485-1.08 0-1.887-.552-2.427-1.662-.54-1.108-.81-2.243-.81-3.41 0-1.17.097-2.453.297-3.855.195-1.4.513-2.71.955-3.938.443-1.224 1.078-2.274 1.913-3.15.832-.877 1.837-1.31 3.012-1.31 1.08 0 1.938.468 2.578 1.398.635.935.952 2.043.952 3.33zM41.38 85.928c-.697 0-1.465-.088-2.295-.263s-1.572-.435-2.227-.787a4.882 4.882 0 0 1-1.64-1.378c-.44-.567-.655-1.29-.655-2.162 0-.525.215-.985.655-1.38.435-.388.917-.585 1.445-.585.605 0 .982.155 1.112.46s.283.657.46 1.045c.17.395.478.77.918 1.115.435.352 1.265.525 2.49.525 1.747 0 3.1-.568 4.067-1.705.963-1.135 1.44-2.448 1.44-3.935 0-1.745-.717-3.365-2.162-4.85-1.44-1.488-3.698-2.233-6.753-2.233-1.49 0-2.955.313-4.395.918a14.04 14.04 0 0 0-3.867 2.43 12.045 12.045 0 0 0-2.755 3.54c-.703 1.357-1.05 2.82-1.05 4.392 0 1.49.497 2.868 1.51 4.133 1 1.27 2.295 2.515 3.867 3.737a174.866 174.866 0 0 0 4.985 3.738 50.995 50.995 0 0 1 4.98 4.132c1.578 1.488 2.863 3.103 3.873 4.85 1 1.75 1.51 3.76 1.51 6.035 0 2.535-.59 4.765-1.773 6.685-1.182 1.928-2.71 3.543-4.59 4.855s-3.955 2.295-6.23 2.95-4.545.985-6.822.985c-1.748 0-3.52-.195-5.308-.587-1.797-.395-3.412-1.05-4.857-1.97a11.445 11.445 0 0 1-3.54-3.54c-.918-1.443-1.378-3.168-1.378-5.18 0-3.32 1.138-6.098 3.413-8.325 2.27-2.235 5.025-3.348 8.262-3.348 2.013 0 3.868.573 5.573 1.708 1.71 1.134 2.557 2.842 2.557 5.114 0 1.836-.61 3.476-1.835 4.916-1.225 1.447-2.797 2.165-4.722 2.165-.963 0-1.818-.283-2.558-.853s-1.112-1.378-1.112-2.427c0-.875.415-1.635 1.245-2.295.83-.655 1.64-.985 2.427-.985s1.225.135 1.313.395.39.57.917.917c.523-.525.785-1.05.785-1.577 0-1.308-.502-2.268-1.51-2.88s-2.12-.92-3.345-.92c-2.012 0-3.785.81-5.312 2.427-1.528 1.618-2.295 3.433-2.295 5.442 0 1.493.37 2.738 1.112 3.738.743 1.008 1.71 1.82 2.885 2.43a14.11 14.11 0 0 0 3.803 1.307c1.357.268 2.602.396 3.74.396 1.485 0 2.862-.33 4.13-.986a13.007 13.007 0 0 0 3.407-2.555 11.574 11.574 0 0 0 2.363-3.677c.567-1.395.855-2.793.855-4.195 0-1.49-.483-2.865-1.446-4.13s-2.162-2.493-3.602-3.675a73.177 73.177 0 0 0-4.728-3.54 41.25 41.25 0 0 1-4.722-3.803c-1.44-1.352-2.643-2.795-3.607-4.327-.958-1.528-1.44-3.258-1.44-5.18 0-2.623.572-4.983 1.71-7.08a16.487 16.487 0 0 1 4.522-5.313c1.88-1.445 4.005-2.557 6.363-3.347a22.777 22.777 0 0 1 7.212-1.18c2.1 0 3.935.285 5.513.855 1.567.57 2.862 1.33 3.867 2.295 1 .962 1.748 2.052 2.228 3.277.482 1.225.722 2.495.722 3.805 0 2.36-.83 4.526-2.49 6.49-1.665 1.965-4.065 2.95-7.215 2.95zm73.085 37.837c-1.767 1.467-3.877 2.72-6.322 3.75-2.45 1.027-4.805 1.542-7.06 1.542-3.233 0-5.465-1.007-6.69-3.017s-1.84-4.578-1.84-7.72c0-2.645.317-5.563.957-8.745a181.78 181.78 0 0 1 2.135-9.413c.783-3.087 1.49-5.957 2.135-8.602.635-2.648.953-4.803.953-6.47 0-3.625-.983-5.44-2.94-5.44-2.745 0-5.64 1.347-8.673 4.04-3.042 2.7-5.907 5.93-8.607 9.71a104.033 104.033 0 0 0-7.28 11.76c-2.153 4.07-3.818 7.427-4.995 10.072-.2.395-.44.91-.733 1.543-.297.642-.64 1.275-1.03 1.912-.395.64-.835 1.183-1.327 1.615-.488.443-.978.665-1.47.665-1.373 0-2.45-.49-3.233-1.472-.785-.978-1.347-2.178-1.695-3.6-.342-1.417-.562-2.917-.66-4.485s-.147-2.94-.147-4.115v-.885c0-2.745.292-6.665.88-11.762.59-5.096 1.475-10.808 2.647-17.133 1.178-6.323 2.628-12.94 4.34-19.85s3.678-13.528 5.885-19.85c2.203-6.323 4.678-12.08 7.428-17.278 2.74-5.195 5.682-9.217 8.817-12.06 3.14-2.84 6.323-4.265 9.56-4.265 4.41 0 6.615 4.758 6.615 14.268 0 4.702-.615 10.07-1.835 16.1-1.23 6.03-3.262 12.11-6.102 18.235-2.848 6.127-6.523 11.912-11.03 17.347-4.513 5.443-10.098 9.878-16.763 13.31a161.067 161.067 0 0 0-1.47 9.335 73.476 73.476 0 0 0-.59 9.338v1.982c0 .64.05 1.303.153 1.988 1.47-2.83 3.355-6.05 5.66-9.66a82.899 82.899 0 0 1 7.72-10.243c2.842-3.222 5.932-5.957 9.267-8.2 3.33-2.242 6.758-3.365 10.288-3.365 6.567 0 9.852 3.81 9.852 11.433 0 1.662-.322 3.955-.957 6.89a535.984 535.984 0 0 1-2.13 9.377c-.785 3.325-1.5 6.598-2.135 9.825-.64 3.225-.958 5.96-.958 8.203 0 1.475.17 2.65.518 3.535.342.877.957 1.317 1.835 1.317.782 0 1.64-.22 2.572-.66a50.74 50.74 0 0 0 2.725-1.4c.88-.49 1.71-.952 2.495-1.395s1.373-.665 1.768-.665c.487 0 .902.195 1.25.59.342.388.512.83.512 1.32l-.295.748zM97.553 13.925c0-2.653-.585-3.975-1.763-3.975-1.275 0-2.597.737-3.97 2.205-1.67 1.77-3.385 4.395-5.147 7.877-1.768 3.488-3.505 7.383-5.22 11.703-1.715 4.322-3.335 8.837-4.853 13.547s-2.895 9.175-4.115 13.39c-1.23 4.22-2.232 7.975-3.012 11.265-.79 3.288-1.28 5.668-1.475 7.14 4.805-2.947 9.042-6.867 12.72-11.777 3.677-4.908 6.767-10.28 9.267-16.12a94.19 94.19 0 0 0 5.66-18.033c1.273-6.184 1.908-11.924 1.908-17.222zm179.094 16.952l-1.835-3.012c-13.545 9.077-31.435 39.595-31.435 62.942 0 27.865 9.395 65.37 44.155 65.37 32.843 0 49.19-35.224 52.628-75.667 1.953-22.883-7.505-56.9-38.1-56.9-24.533 0-34.483 30.275-34.483 49.635 0 11.197 8.483 21.793 19.955 21.793 11.103 0 20.595-13.563 13.915-26.633-.86 1.805 1.43 15.74-11.495 15.74-9.902 0-16.327-9.085-16.327-18.765 0-17.63 5.477-32.083 25.4-32.083 9.15 0 19.848 13.573 23.58 19.983 4.605 7.897 8.487 21.99 8.487 34.495 0 25.785-7.125 58.107-38.72 58.107-22.197 0-39.312-31.555-39.312-55.687 0-22.92 5.795-43.395 23.588-59.318zm83.223 66.008c0-15.365 7.515-31.05 18.915-41.248l-1.475-2.417c-10.86 7.28-25.2 31.742-25.2 50.46 0 22.338 7.535 52.413 35.4 52.413 26.328 0 39.428-28.24 42.188-60.66 1.562-18.35-6.02-45.615-30.553-45.615-19.658 0-27.643 24.267-27.643 39.79 0 8.98 6.803 17.467 16.005 17.467 8.893 0 16.51-10.872 11.153-21.35-.693 1.443 1.142 12.618-9.215 12.618-7.94 0-13.09-7.283-13.09-15.045 0-14.133 4.395-25.72 20.362-25.72 7.336 0 15.918 10.885 18.91 16.022 3.688 6.33 6.798 17.628 6.798 27.655 0 20.675-5.707 46.583-31.035 46.583-17.797 0-31.522-25.293-31.522-44.643v-6.31h.002zm4.938 105.948c-10.465 5.562-22.505 7.652-35.585 7.652-21.608 0-41.328-17.775-50.815-35.715l-7.26 3.633c11.557 20.962 29.112 40.317 59.907 40.555 14.663.117 27.675-3.323 38.115-8.838l-4.362-7.288zm-134.14-97.378c0 20.885-1.788 38.657-5.343 53.312-3.565 14.645-8.177 26.59-13.842 35.82-5.67 9.223-12.023 15.94-19.068 20.153-7.04 4.212-14.042 6.312-21.005 6.312-6.312 0-12.06-1.455-17.24-4.372-5.185-2.91-9.677-6.72-13.477-11.413-3.8-4.697-6.715-9.95-8.74-15.78-2.023-5.83-3.038-11.582-3.038-17.247 0-4.533.688-8.908 2.065-13.113 1.373-4.21 3.56-7.892 6.553-11.045 2.992-3.16 6.802-5.675 11.415-7.532 4.615-1.86 10.157-2.793 16.635-2.793 3.72 0 7.362.365 10.927 1.095 3.555.728 6.753 1.978 9.59 3.763 2.838 1.78 5.138 4.125 6.925 7.04 1.778 2.917 2.675 6.557 2.675 10.93 0 2.915-.737 5.422-2.192 7.532a17.274 17.274 0 0 1-5.46 5.093c-2.193 1.302-4.615 2.27-7.29 2.917-2.67.648-5.22.973-7.653.973-1.942 0-4.047-.245-6.307-.728-2.27-.485-4.335-1.212-6.198-2.185a13.001 13.001 0 0 1-4.615-4.01c-1.215-1.697-1.822-3.762-1.822-6.19 0-2.27.977-4.172 2.935-5.71 1.957-1.535 4.072-2.307 6.357-2.307 2.613 0 4.438.74 5.503 2.235a20.533 20.533 0 0 1 2.562 4.815c.655 1.727 1.388 3.295 2.203 4.702.815 1.393 2.362 2.095 4.647 2.095 2.773 0 5.338-.9 7.7-2.697 2.363-1.8 3.55-4.168 3.55-7.11 0-2.95-.86-5.4-2.562-7.357-1.71-1.965-3.78-3.515-6.225-4.658-2.438-1.153-5.078-1.927-7.925-2.335-2.843-.41-5.405-.615-7.68-.615-5.053 0-9.36.772-12.94 2.308-3.575 1.534-6.543 3.564-8.898 6.072-2.362 2.512-4.067 5.467-5.127 8.87a34.99 34.99 0 0 0-1.583 10.438c0 4.694.81 9.427 2.427 14.212 1.616 4.77 3.803 9.063 6.553 12.867 2.755 3.803 6.075 6.925 9.96 9.348 3.883 2.433 8.09 3.645 12.628 3.645 5.665 0 11.327-1.945 17.002-5.827 5.665-3.888 10.84-10.048 15.538-18.46 4.697-8.415 8.5-19.303 11.42-32.66 2.91-13.363 4.37-29.59 4.37-48.695 0-10.523-.773-20.278-2.315-29.263-1.533-8.988-3.598-18.582-6.188-28.78-1.132 3.243-2.637 7.328-4.492 12.265-1.865 4.94-4.093 10.118-6.68 15.543a186.799 186.799 0 0 1-8.745 16.147c-3.243 5.345-6.798 10.04-10.688 14.088-5.825 5.99-10.85 8.985-15.053 8.985-2.915 0-5.43-.928-7.525-2.793-2.11-1.86-3.852-4.327-5.225-7.407-1.377-3.073-2.427-6.678-3.16-10.805a73.327 73.327 0 0 1-1.09-12.75c0-4.858.24-9.798.728-14.818.482-5.012 1.095-9.67 1.822-13.962.728-4.29 1.538-8.018 2.428-11.173.887-3.157 1.742-5.3 2.55-6.437.65-.97 1.705-1.735 3.16-2.305 1.455-.565 2.833-.848 4.13-.848 1.29 0 2.75.283 4.365.848 1.615.57 2.433 1.662 2.433 3.28 0 2.915-.365 5.792-1.095 8.617a111.54 111.54 0 0 0-1.823 8.383c-.16 1.135-.45 3.077-.845 5.825-.41 2.76-.815 5.912-1.22 9.472a354.443 354.443 0 0 0-1.09 11.295 137.524 137.524 0 0 0-.483 11.298c0 4.367.278 8.01.846 10.925.567 2.912 1.742 4.372 3.52 4.372 2.432 0 5.38-2.187 8.867-6.56 3.478-4.37 6.88-9.545 10.2-15.542a275.23 275.23 0 0 0 9.228-18.213c2.832-6.152 4.815-11.007 5.947-14.57a94.546 94.546 0 0 0 2.55-9.23 31.18 31.18 0 0 1 3.52-8.985c.81-1.615 1.705-2.832 2.675-3.645.973-.807 2.428-1.21 4.375-1.21 2.583 0 5.01 2.71 7.28 8.135 2.265 5.43 4.215 12.06 5.83 19.913 1.615 7.855 2.915 16.15 3.888 24.895.98 8.73 1.464 16.502 1.464 23.302zM5.443 272.745v-25.482h12.885v2.305H7.995v9.167h9.943v2.305H7.995v11.707H5.443zm17.909-18.857h2.408v2.71c.215-.463.45-.853.707-1.18.995-1.268 2.553-1.938 4.673-2.018v2.54c-1.603.125-2.875.65-3.818 1.583-1.03 1.042-1.547 2.534-1.547 4.472v10.75h-2.42v-18.858zm13.813 16.434c-1.91-1.907-2.863-4.237-2.863-6.997 0-2.77.953-5.11 2.863-7.015 1.905-1.907 4.227-2.862 6.977-2.862 2.768 0 5.108.954 7.008 2.862 1.9 1.905 2.852 4.242 2.852 7.015 0 2.76-.952 5.09-2.852 6.997s-4.238 2.86-7.008 2.86c-2.747-.002-5.072-.952-6.977-2.86zm12.262-1.514c1.435-1.493 2.153-3.32 2.153-5.483 0-2.165-.717-3.998-2.152-5.492s-3.198-2.246-5.283-2.246c-2.075 0-3.828.75-5.263 2.245s-2.152 3.328-2.152 5.493c0 2.163.717 3.992 2.152 5.482s3.188 2.238 5.263 2.238c2.082 0 3.845-.745 5.282-2.238zm9.633-14.92h2.408v1.935l.2-.238c1.2-1.457 2.865-2.185 5-2.185 2.352 0 4.194.728 5.517 2.185.38.428.707.898.99 1.413a5.86 5.86 0 0 1 .892-1.413c1.22-1.457 2.926-2.185 5.103-2.185 2.413 0 4.298.745 5.65 2.238s2.033 3.56 2.033 6.205v10.9h-2.425v-11.17c0-1.873-.45-3.34-1.353-4.4-.907-1.06-2.163-1.59-3.77-1.59-1.635 0-2.905.53-3.8 1.59s-1.337 2.565-1.337 4.517v11.053h-2.42V261.59c0-1.885-.455-3.357-1.363-4.417s-2.162-1.59-3.77-1.59c-1.635 0-2.9.53-3.795 1.59-.887 1.06-1.332 2.565-1.332 4.517v11.053h-2.425v-18.855zm34.938 0h2.557v4.34h-2.557v-4.34zm0 14.514h2.557v4.34h-2.557v-4.34zm29.437 4.778c-2.74 0-5.058-.953-6.957-2.86s-2.853-4.238-2.853-6.998c0-2.77.953-5.11 2.853-7.015 1.9-1.907 4.22-2.862 6.957-2.862 2.76 0 5.082.955 6.978 2.862 1.9 1.905 2.847 4.243 2.847 7.015.01.303-.01.605-.053.908h-17.11c.17 1.76.88 3.285 2.125 4.575 1.445 1.492 3.213 2.237 5.298 2.237 1.49 0 2.802-.375 3.925-1.127 1.127-.75 2.035-1.848 2.72-3.295h2.505c-.675 1.962-1.855 3.547-3.55 4.75-1.695 1.207-3.59 1.81-5.685 1.81zm7.315-11.118a7.502 7.502 0 0 0-2.065-4.237c-1.425-1.493-3.175-2.24-5.25-2.24-2.065 0-3.812.752-5.25 2.255-1.112 1.177-1.802 2.582-2.07 4.22h14.635zm5.565-8.174h2.645l6.705 16.35h-.02l6.685-16.35h2.575l-7.94 18.857h-2.71l-7.94-18.857zm31.353 19.292c-2.735 0-5.053-.953-6.953-2.86s-2.852-4.238-2.852-6.998c0-2.77.952-5.11 2.852-7.015 1.9-1.907 4.22-2.862 6.953-2.862 2.76 0 5.087.955 6.982 2.862 1.895 1.905 2.843 4.243 2.843 7.015.015.303-.005.605-.05.908h-17.11c.17 1.76.88 3.285 2.12 4.575 1.45 1.492 3.212 2.237 5.302 2.237 1.49 0 2.797-.375 3.925-1.127 1.127-.75 2.032-1.848 2.715-3.295h2.51c-.675 1.962-1.855 3.547-3.55 4.75-1.693 1.207-3.588 1.81-5.688 1.81zm7.32-11.118a7.51 7.51 0 0 0-2.07-4.237c-1.42-1.493-3.175-2.24-5.25-2.24-2.06 0-3.813.752-5.245 2.255-1.113 1.177-1.803 2.582-2.07 4.22h14.635zm7.567-8.174h2.407v2.71a5.68 5.68 0 0 1 .703-1.18c1-1.268 2.557-1.938 4.677-2.018v2.54c-1.607.125-2.875.65-3.817 1.583-1.03 1.042-1.548 2.534-1.548 4.472v10.75h-2.42v-18.858zm16.465 25.55h-2.365l3.227-7.543v-.01l-7.305-18h2.63l5.913 15.072h.01l6.372-15.072h2.57l-11.052 25.552zm17.193-9.116c-1.91-1.907-2.863-4.237-2.863-6.997 0-2.77.953-5.11 2.863-7.015 1.905-1.907 4.232-2.862 6.977-2.862 2.773 0 5.108.954 7.008 2.862 1.9 1.905 2.852 4.242 2.852 7.015 0 2.76-.953 5.09-2.853 6.997s-4.232 2.86-7.007 2.86c-2.742-.002-5.072-.952-6.977-2.86zm12.262-1.514c1.435-1.493 2.152-3.32 2.152-5.483 0-2.165-.717-3.998-2.152-5.492s-3.193-2.246-5.283-2.246c-2.075 0-3.827.75-5.262 2.245s-2.153 3.328-2.153 5.493c0 2.163.718 3.992 2.153 5.482s3.187 2.238 5.262 2.238c2.088 0 3.845-.745 5.283-2.238zm9.602-14.92h2.408v2.44l.385-.47c1.322-1.635 3.155-2.453 5.497-2.453 2.603 0 4.635.8 6.09 2.405 1.46 1.605 2.188 3.835 2.188 6.695v10.245h-2.42v-10.312c0-2.14-.518-3.818-1.548-5.03s-2.465-1.818-4.307-1.818c-1.885 0-3.33.615-4.345 1.843s-1.523 2.977-1.523 5.257v10.058h-2.42v-18.86zm31.271 19.292c-2.74 0-5.053-.953-6.958-2.86-1.9-1.908-2.852-4.238-2.852-6.998 0-2.77.952-5.11 2.852-7.015 1.905-1.907 4.22-2.862 6.958-2.862 2.76 0 5.082.955 6.982 2.862 1.895 1.905 2.843 4.243 2.843 7.015.01.303-.005.605-.053.908h-17.105c.165 1.76.875 3.285 2.12 4.575 1.445 1.492 3.212 2.237 5.298 2.237 1.495 0 2.802-.375 3.93-1.127 1.122-.75 2.032-1.848 2.715-3.295h2.505c-.676 1.962-1.856 3.547-3.55 4.75-1.696 1.207-3.59 1.81-5.686 1.81zm7.314-11.118a7.502 7.502 0 0 0-2.064-4.237c-1.425-1.493-3.175-2.24-5.25-2.24-2.065 0-3.813.752-5.25 2.255-1.108 1.177-1.803 2.582-2.07 4.22h14.634z" fill="#F68A22"/></svg>