<svg xmlns="http://www.w3.org/2000/svg" width="85.04" height="85.04" viewBox="0 0 85.04 85.04"><path fill="#FFF" d="M21.306 16.613C5.144 28.207 1.559 57.547 17.151 71.098c13.781 11.977 39.997 6.569 50.604-7.176 6.968-9.028 10.007-20.888 9.896-32.21C77.557 22.108 67.18 13.216 59.3 9.318c-7.863-3.889-15.794-.707-17.613 7.942-1.23 5.85-1.438 28.754-13.222 22.774-7.164-3.635-4.211-16.785-1.357-22.27.223-.429-.424-.808-.647-.379-3.08 5.919-4.381 14.153-1.278 20.292 3.027 5.99 9.351 4.27 12.518-.23 4.807-6.832 3.161-14.708 5.259-22.244 2.696-9.681 13.596-6.97 19.87-3.054 5.544 3.46 10.954 9.449 13.418 15.532 2.225 5.495-.044 13.203-1.133 18.776-1.306 6.681-4.535 12.944-8.891 18.131-7.445 8.866-20.479 12.509-31.679 12.084-13.58-.516-23.453-9.605-25.91-22.797-2.44-13.1 2.032-28.713 13.049-36.617.39-.277.016-.927-.378-.645z"/><path fill="#FFF" d="M24.656 55.158c-2.023 1.385-3.833 1.917-6.068.426-2.13-1.277-2.343-4.152-.639-5.855 3.939-3.727 11.072 2.237 7.027 5.218m9.899 13.839c-2.021 1.385-3.832 1.915-6.068.425-2.129-1.277-2.342-4.152-.639-5.854 3.939-3.727 11.072 2.234 7.026 5.216m18.42.213c-2.022 1.385-3.833 1.915-6.068.425-2.129-1.277-2.343-4.152-.638-5.854 3.938-3.727 11.071 2.234 7.026 5.216m11.603-13.415c-2.021 1.385-3.832 1.917-6.067.426-2.129-1.277-2.343-4.152-.639-5.855 3.939-3.727 11.072 2.237 7.026 5.218m3.087-18.528c-2.022 1.384-3.831 1.916-6.067.426-2.129-1.278-2.344-4.152-.639-5.855 3.938-3.726 11.072 2.236 7.026 5.217M57.02 24.496c-2.022 1.384-3.832 1.917-6.067.426-2.13-1.278-2.344-4.152-.639-5.855 3.938-3.726 11.072 2.236 7.026 5.216m-35.4-7.188c.957-.826 2.742-2.348 4.152-1.733 1 .436.62 1.811.226 2.521-.235.423.413.802.647.379.625-1.127.825-2.666-.378-3.483-1.648-1.12-4.028.793-5.178 1.786-.366.316.167.845.531.53z"/></svg>